<svg xmlns="http://www.w3.org/2000/svg" width="285" height="262" fill="none" viewBox="0 0 285 262"><clipPath id="a"><path d="M0 0h285v262H0z"/></clipPath><g fill="#fff" clip-path="url(#a)"><path d="M252.522 16.246c5.402-5.394 10.783-10.81 16.185-16.203 5.393 5.4 10.783 10.806 16.179 16.203-5.383 5.4-10.792 10.772-16.176 16.169a13559 13559 0 0 1-16.188-16.17M180.752 40.675c8.039-.502 16.243.249 23.868 2.96 9.607 3.319 17.889 9.881 23.985 17.954 4.079 5.455 6.937 11.799 8.407 18.45 1.397 6.286 1.694 12.796 1.105 19.201-.592 6.35-2.247 12.627-5.12 18.334-2.56 5.142-6.099 9.76-10.252 13.715-4.297 4.204-9.334 7.663-14.85 10.053-6.274 2.752-13.107 4.099-19.933 4.348-6.999.274-14.086-.471-20.765-2.636a48.8 48.8 0 0 1-16.686-9.329c-4.073-3.506-7.775-7.498-10.642-12.061-3.846-6.027-6.224-12.937-7.176-20.013-1.562-11.947-.025-24.632 6.062-35.18 3.438-6.023 8.229-11.208 13.666-15.476 8.075-6.298 18.162-9.712 28.331-10.32m-.565 19.782c-5.068.633-10.016 2.414-14.206 5.357-4.444 3.124-8.14 7.358-10.47 12.285-2.667 5.593-3.496 11.928-3.054 18.07.363 5.405 1.943 10.771 4.887 15.335 3.404 5.277 8.355 9.582 14.15 12.023 5.593 2.374 11.805 2.999 17.818 2.433 5.366-.511 10.645-2.288 15.09-5.372 5.166-3.589 9.331-8.691 11.56-14.601 2.053-5.366 2.55-11.23 2.025-16.922-.506-5.296-2.222-10.508-5.221-14.918-3.496-5.135-8.478-9.29-14.254-11.602-5.783-2.328-12.174-2.808-18.325-2.088M258.578 42.56c6.747-.01 13.49.003 20.237-.006.006 33.73 0 67.465 0 101.196-6.744-.006-13.49.012-20.237-.01zM.01 261.803c29.973-47.231 59.937-94.467 89.929-141.689 7.4.003 14.797.019 22.198-.006 6.467 47.221 12.796 94.464 19.221 141.695h-21.21c-1.474-10.787-2.978-21.572-4.423-32.362-21.284-.031-42.565-.007-63.845-.013-6.87 10.794-13.745 21.582-20.615 32.372-7.084.006-14.171.003-21.256.003m53.905-51.597c16.425.006 32.85 0 49.274.003-2.891-21.262-5.786-42.523-8.677-63.784q-20.298 31.892-40.597 63.781M171.279 158.353c6.535 1.608 13.325 1.368 19.983.883-2.898 12.122-6.02 24.188-9 36.289-5.528 22.092-11.007 44.193-16.56 66.278h-20.225c5.489-22.359 11.133-44.681 16.689-67.025 3.042-12.141 6.032-24.297 9.113-36.425"/></g></svg>